<svg id="Layer_1" data-name="Layer 1" xmlns="http://www.w3.org/2000/svg" viewBox="0 0 612 792"><defs><style>.cls-1{fill:#231f20;}</style></defs><path class="cls-1" d="M529.69,102.24c-16.94-10.89-34.17-2.64-37.46-.87l-.51.27-42.93,51.55-15.41,37.66-91,102.08a111.61,111.61,0,0,0-32.9-20.29,100.12,100.12,0,0,0-32.68-6.93l-.32,0-.32.06a61.05,61.05,0,0,0-26.85,11.88c-19,14.55-26.51,36.52-29.31,48.38-6.12,20.54-15.18,35.22-26.94,43.65-8.71,6.24-16.35,7.36-26,8.77-7.37,1.08-15.73,2.3-26.08,6.07-16,5.81-31.11,15.71-44.94,29.43l-.1.09a133.55,133.55,0,0,0-32.57,64.19c-11.92,59,21,109.57,31.85,126.27a187.5,187.5,0,0,0,30.34,35.27c22.25,20.13,46.47,32.15,72,35.73a133.34,133.34,0,0,0,19.12,1.64,75.24,75.24,0,0,0,38.28-10c30.38-17.47,43.5-51.87,47.72-65.85l.09-.36a486.42,486.42,0,0,1,13.56-57.42c6.14-20.25,9.4-25.81,12.47-30.13a56.67,56.67,0,0,1,32.31-22.07l.39-.11.35-.2a89.5,89.5,0,0,0,31.55-31.32,109.44,109.44,0,0,0,13.49-34.53l.06-.42a133.17,133.17,0,0,0-7.43-53.56,115.12,115.12,0,0,0-18.15-32.68l89.07-104.71L499.87,218,550.66,156l.1-.87C553.36,133.26,544.89,112,529.69,102.24Zm-135.83,271A127.51,127.51,0,0,1,401,424.11a103,103,0,0,1-12.7,32.43,83.76,83.76,0,0,1-29.07,29,62.5,62.5,0,0,0-35.29,24.3c-4.05,5.7-7.53,12.74-13.32,31.86a493.44,493.44,0,0,0-13.7,58c-4.08,13.41-16.53,45.89-44.93,62.22-21.16,12.17-40.66,9.43-53.57,7.62-56.2-7.89-91.59-58.31-98.17-68.41C89.71,585,57.81,536,69.25,479.4a127.42,127.42,0,0,1,31.06-61.26c13.2-13.07,27.57-22.49,42.72-28,9.78-3.56,17.81-4.73,24.9-5.77,10.06-1.47,18.75-2.74,28.64-9.83,12.89-9.24,22.72-25,29.22-46.9l0-.16c2.61-11.07,9.6-31.63,27.15-45.08a55.12,55.12,0,0,1,23.92-10.69,94.48,94.48,0,0,1,30.41,6.51,105.9,105.9,0,0,1,31.13,19.25l-54.87,64.2c-1.12-.09-2.23-.15-3.37-.15-26.87,0-48.73,26-48.73,58.05s21.86,58.06,48.73,58.06,48.74-26.05,48.74-58.06a68.25,68.25,0,0,0-1.87-15.89L328.8,405l48.64-61.81A109.63,109.63,0,0,1,393.86,373.19Zm-69.92,46.38c0,29.26-19.62,53.06-43.74,53.06s-43.73-23.8-43.73-53.06,19.62-53.05,43.73-53.05S323.94,390.32,323.94,419.57Zm221-266L496,213.31,466.59,229,374.64,337.09h0l-.06.07-1.06,1.26,0,0-47.75,60.67C320,380.89,306.75,367,290.47,362.82l54.4-63.64L438.2,194.45l.35-.38L454,156.32l41.58-49.93c3.71-1.88,17.47-7.72,30.87.89C539.56,115.72,546.92,134.23,544.9,153.54Z"/><polygon class="cls-1" points="164.39 469.71 152.42 484.1 224.48 570.67 224.86 571.13 236.83 556.75 164.78 470.17 164.39 469.71"/></svg>